<svg width="28" height="18" viewBox="0 0 28 18" fill="none" xmlns="http://www.w3.org/2000/svg">
<path fill-rule="evenodd" clip-rule="evenodd" d="M13.9999 3.24072C15.597 3.24072 16.8509 4.49922 16.8509 6.00265C16.8509 7.50608 15.597 8.76458 13.9999 8.76458C12.4033 8.76458 11.1489 7.50599 11.1489 6.00265C11.1489 4.49932 12.4033 3.24072 13.9999 3.24072ZM13.9999 2.24072C16.1272 2.24072 17.8509 3.9251 17.8509 6.00265C17.8509 8.0802 16.1272 9.76458 13.9999 9.76458C11.8732 9.76458 10.1489 8.0802 10.1489 6.00265C10.1489 3.9251 11.8732 2.24072 13.9999 2.24072ZM13.9999 11.4289C16.254 11.4289 18.2944 12.8808 19.3385 15.1375C17.8887 16.3003 16.0311 16.9999 13.9999 16.9999C11.9686 16.9999 10.111 16.3003 8.66122 15.1375C9.70531 12.8808 11.7457 11.4289 13.9999 11.4289ZM13.9999 10.4289C16.9532 10.4289 19.4824 12.4929 20.5344 15.4213C18.8429 17.0178 16.5396 17.9999 13.9999 17.9999C11.4601 17.9999 9.15684 17.0178 7.46533 15.4213C8.51732 12.4929 11.0465 10.4289 13.9999 10.4289Z" fill="#4E5472"/>
<path fill-rule="evenodd" clip-rule="evenodd" d="M7.51593 3.0846C7.51593 1.95534 6.57233 1 5.3583 1C4.14472 1 3.20068 1.95545 3.20068 3.0846C3.20068 4.21375 4.14472 5.1692 5.3583 5.1692C6.57233 5.1692 7.51593 4.21386 7.51593 3.0846ZM8.51593 3.0846C8.51593 1.38124 7.10255 0 5.3583 0C3.61462 0 2.20068 1.38124 2.20068 3.0846C2.20068 4.78796 3.61462 6.1692 5.3583 6.1692C7.10255 6.1692 8.51593 4.78796 8.51593 3.0846ZM8.0449 8.67937C7.26793 8.06192 6.34043 7.71423 5.35818 7.71423C3.63443 7.71423 2.05301 8.79883 1.20515 10.5221C2.34608 11.398 3.78676 11.9219 5.35818 11.9219C5.48561 11.9219 5.61208 11.9185 5.73749 11.9117C6.29024 10.6942 7.07368 9.58562 8.0449 8.67937ZM8.82463 8.02648C7.85836 7.20259 6.65854 6.71423 5.35818 6.71423C2.93668 6.71423 0.862683 8.40621 0 10.8075C1.38729 12.1166 3.27586 12.9219 5.35818 12.9219C5.72124 12.9219 6.07875 12.8975 6.42849 12.8498C6.93756 11.5232 7.73914 10.3219 8.76274 9.37749C9.00828 9.15096 9.26659 8.93921 9.5367 8.74406C9.31714 8.48348 9.07898 8.24336 8.82463 8.02648ZM24.7996 3.0846C24.7996 1.95533 23.856 1 22.642 1C21.4284 1 20.4844 1.95545 20.4844 3.0846C20.4844 4.21375 21.4284 5.1692 22.642 5.1692C23.856 5.1692 24.7996 4.21386 24.7996 3.0846ZM25.7996 3.0846C25.7996 1.38124 24.3862 0 22.642 0C20.8983 0 19.4844 1.38124 19.4844 3.0846C19.4844 4.78796 20.8983 6.1692 22.642 6.1692C24.3862 6.1692 25.7996 4.78796 25.7996 3.0846ZM26.795 10.5222C25.9472 8.79883 24.3661 7.71423 22.6419 7.71423C21.6595 7.71423 20.7318 8.0617 19.9552 8.67875C20.9265 9.58502 21.7103 10.6938 22.2632 11.9117C22.3884 11.9185 22.5146 11.9219 22.6419 11.9219C24.2138 11.9219 25.6545 11.398 26.795 10.5222ZM28.0001 10.8075C27.1374 8.40621 25.064 6.71423 22.6419 6.71423C21.3416 6.71423 20.1415 7.2022 19.1754 8.02588C18.921 8.24275 18.6829 8.48289 18.4634 8.74352C18.7335 8.93865 18.9918 9.15039 19.2374 9.37692C20.2611 10.3213 21.0631 11.5228 21.5721 12.8498C21.9219 12.8975 22.2788 12.9219 22.6419 12.9219C24.7248 12.9219 26.6133 12.1166 28.0001 10.8075Z" fill="#9FAAC4"/>
</svg>
