<svg width="23" height="24" viewBox="0 0 23 24" fill="none" xmlns="http://www.w3.org/2000/svg">
    <path d="M13.1269 5.33997L15.0359 1.51882C15.1444 1.30249 15.1079 1.04125 14.9438 0.862993C14.78 0.684928 14.5231 0.626743 14.2985 0.717142C11.5328 1.82187 10.2834 1.26735 8.96213 0.677312C7.64327 0.0872631 6.2801 -0.51973 3.76706 0.736472M13.1269 5.33997V4.83997H12.8178M13.1269 5.33997L12.6796 5.11651L12.8178 4.83997M13.1269 5.33997H5.41546M12.8178 4.83997L14.5886 1.29536L14.5889 1.29472C14.6044 1.26393 14.5991 1.22674 14.5759 1.20159L14.5759 1.20156C14.5527 1.17636 14.5166 1.16834 14.4853 1.18096L14.484 1.18147C13.0497 1.75438 11.9656 1.91394 11.0437 1.83074C10.135 1.74873 9.4265 1.4323 8.77474 1.14122L8.75825 1.13386L8.75794 1.13372C8.09197 0.835767 7.49439 0.573258 6.77079 0.512813C6.06 0.453437 5.18252 0.587944 3.99083 1.18361M12.8178 4.83997H5.7246M3.99083 1.18361L3.76706 0.736472M3.99083 1.18361C3.99076 1.18364 3.99069 1.18367 3.99062 1.18371L3.76706 0.736472M3.99083 1.18361C3.97144 1.19331 3.95638 1.21045 3.94926 1.23156M3.76706 0.736472C3.62895 0.805588 3.5238 0.926837 3.47484 1.07366M3.47484 1.07366L3.94935 1.23127C3.94932 1.23136 3.94929 1.23146 3.94926 1.23156M3.47484 1.07366L3.94916 1.23184C3.94919 1.23175 3.94922 1.23165 3.94926 1.23156M3.47484 1.07366L5.7246 4.83997M3.94926 1.23156C3.94221 1.25302 3.94409 1.27573 3.95368 1.29487L3.95393 1.29538L5.7246 4.83997M5.7246 4.83997L5.86276 5.11652L5.41546 5.33997M5.7246 4.83997H5.41546V5.33997M5.7246 4.83997L5.41546 5.33997" stroke="#7A859E"/>
    <path d="M5.37971 7.0061C3.33282 9.61999 1.87985 12.2932 1.11693 14.7123C0.331983 17.2013 0.296144 19.3573 1.00917 20.9097L5.37971 7.0061ZM5.37971 7.0061H13.1714C15.3622 9.75963 16.9257 12.478 17.7713 14.8868C18.6412 17.3646 18.7262 19.438 18.0584 20.8916C17.789 21.4778 17.3249 22.1207 16.5166 22.6208C15.7066 23.1219 14.5178 23.5 12.7668 23.5H5.77543C4.24978 23.5 3.19622 23.1301 2.46324 22.6373C1.72816 22.1431 1.28178 21.5026 1.00925 20.9099L5.37971 7.0061Z" stroke="#7A859E"/>
    <path d="M20.25 20.5H9.75C9.66293 20.5 9.59428 20.4686 9.55193 20.431C9.51047 20.3941 9.5 20.3587 9.5 20.3333V17.6667C9.5 17.6413 9.51047 17.6059 9.55193 17.569C9.59428 17.5314 9.66293 17.5 9.75 17.5H20.25C20.3371 17.5 20.4057 17.5314 20.4481 17.569C20.4895 17.6059 20.5 17.6413 20.5 17.6667V20.3333C20.5 20.3587 20.4895 20.3941 20.4481 20.431C20.4057 20.4686 20.3371 20.5 20.25 20.5Z" fill="#F7F8FB" stroke="#7A859E"/>
    <path d="M22.25 23.5H11.75C11.6629 23.5 11.5943 23.4686 11.5519 23.431C11.5105 23.3941 11.5 23.3587 11.5 23.3333V20.6667C11.5 20.6413 11.5105 20.6059 11.5519 20.569C11.5943 20.5314 11.6629 20.5 11.75 20.5H22.25C22.3371 20.5 22.4057 20.5314 22.4481 20.569C22.4895 20.6059 22.5 20.6413 22.5 20.6667V23.3333C22.5 23.3587 22.4895 23.3941 22.4481 23.431C22.4057 23.4686 22.3371 23.5 22.25 23.5Z" fill="#F7F8FB" stroke="#7A859E"/>
    <path d="M22.25 17.5H11.75C11.6629 17.5 11.5943 17.4686 11.5519 17.431C11.5105 17.3941 11.5 17.3587 11.5 17.3333V14.6667C11.5 14.6413 11.5105 14.6059 11.5519 14.569C11.5943 14.5314 11.6629 14.5 11.75 14.5H22.25C22.3371 14.5 22.4057 14.5314 22.4481 14.569C22.4895 14.6059 22.5 14.6413 22.5 14.6667V17.3333C22.5 17.3587 22.4895 17.3941 22.4481 17.431C22.4057 17.4686 22.3371 17.5 22.25 17.5Z" fill="#F7F8FB" stroke="#7A859E"/>
    <path d="M19 15V18" stroke="#7A859E"/>
    <path d="M17 18V21" stroke="#7A859E"/>
    <path d="M20 20V24" stroke="#7A859E"/>
</svg>
